<svg width="416" height="222" viewBox="0 0 416 222" fill="none" xmlns="http://www.w3.org/2000/svg">
<path opacity="0.5" d="M93.7185 116.146L80.5994 94.1453L54.869 94.4359L54.8181 94.5249L42.2501 116.727L55.3692 138.727L81.0997 138.437L81.1505 138.348L93.7185 116.146ZM80.4032 94.4938L93.3108 116.15L80.8956 138.093L55.5728 138.379L42.6652 116.722L55.0804 94.7798L80.4032 94.4938Z" fill="#B0AEAE" fill-opacity="0.22"/>
<path d="M29.7726 182.342L31.2761 182.325L32.009 181.158L31.2497 180.009L29.7462 180.026L29.0132 181.193L29.7726 182.342Z" fill="#CFB52F"/>
<path d="M79.7726 50.3423L81.2761 50.3252L82.009 49.1583L81.2497 48.0085L79.7462 48.0257L79.0132 49.1925L79.7726 50.3423Z" fill="#CFB52F"/>
<path d="M181.773 49.3423L183.276 49.3252L184.009 48.1583L183.25 47.0085L181.746 47.0257L181.013 48.1925L181.773 49.3423Z" fill="#CFB52F"/>
<path d="M283.773 48.3423L285.276 48.3252L286.009 47.1583L285.25 46.0085L283.746 46.0257L283.013 47.1925L283.773 48.3423Z" fill="#CFB52F"/>
<path opacity="0.5" d="M81.7185 94.1457L68.5994 72.1453L42.869 72.4359L42.8181 72.5249L30.2501 94.7269L43.3692 116.727L69.0997 116.437L69.1505 116.348L81.7185 94.1457ZM68.4032 72.4938L81.3108 94.1503L68.8956 116.093L43.5728 116.379L30.6652 94.7222L43.0804 72.7798L68.4032 72.4938Z" fill="#B0AEAE" fill-opacity="0.22"/>
<path opacity="0.5" d="M81.7185 138.146L68.5994 116.145L42.869 116.436L42.8181 116.525L30.2501 138.727L43.3692 160.727L69.0997 160.437L69.1505 160.348L81.7185 138.146ZM68.4032 116.494L81.3108 138.15L68.8956 160.093L43.5728 160.379L30.6652 138.722L43.0804 116.78L68.4032 116.494Z" fill="#B0AEAE" fill-opacity="0.22"/>
<path opacity="0.5" d="M107.718 137.146L94.5994 115.145L68.869 115.436L68.8181 115.525L56.2501 137.727L69.3692 159.727L95.0997 159.437L95.1505 159.348L107.718 137.146ZM94.4032 115.494L107.311 137.15L94.8956 159.093L69.5728 159.379L56.6652 137.722L69.0804 115.78L94.4032 115.494Z" fill="#B0AEAE" fill-opacity="0.22"/>
<path opacity="0.5" d="M68.7185 116.146L55.5994 94.1453L29.869 94.4359L29.8181 94.5249L17.2501 116.727L30.3692 138.727L56.0997 138.437L56.1505 138.348L68.7185 116.146ZM55.4032 94.4938L68.3108 116.15L55.8956 138.093L30.5728 138.379L17.6652 116.722L30.0804 94.7798L55.4032 94.4938Z" fill="#B0AEAE" fill-opacity="0.22"/>
<path opacity="0.5" d="M106.718 93.1457L93.5994 71.1453L67.869 71.4359L67.8181 71.5249L55.2501 93.7269L68.3692 115.727L94.0997 115.437L94.1505 115.348L106.718 93.1457ZM93.4032 71.4938L106.311 93.1503L93.8956 115.093L68.5728 115.379L55.6652 93.7222L68.0804 71.7798L93.4032 71.4938Z" fill="#B0AEAE" fill-opacity="0.22"/>
<path opacity="0.5" d="M168.072 28.2406L170.133 28.2171L171.139 26.6077L170.096 25.0117L168.036 25.0352L167.018 26.6547L168.072 28.2406Z" fill="#B0AEAE" fill-opacity="0.3"/>
<path opacity="0.5" d="M130.072 50.2406L132.133 50.2171L133.139 48.6077L132.096 47.0117L130.036 47.0352L129.018 48.6547L130.072 50.2406Z" fill="#B0AEAE" fill-opacity="0.3"/>
<path opacity="0.5" d="M105.724 49.005L92.6054 27.0047L66.8749 27.2952L66.824 27.3842L54.256 49.5862L67.3751 71.5865L93.1056 71.2959L93.1565 71.207L105.724 49.005ZM92.4091 27.3532L105.317 49.0096L92.9015 70.952L67.5787 71.2379L54.6712 49.5815L67.0864 27.6392L92.4091 27.3532Z" fill="#B0AEAE" fill-opacity="0.22"/>
<path opacity="0.5" d="M182.718 48.1457L169.599 26.1453L143.869 26.4359L143.818 26.5249L131.25 48.7269L144.369 70.7272L170.1 70.4366L170.151 70.3476L182.718 48.1457ZM169.403 26.4939L182.311 48.1503L169.896 70.0926L144.573 70.3786L131.665 48.7222L144.08 26.7798L169.403 26.4939Z" fill="#B0AEAE" fill-opacity="0.22"/>
<path opacity="0.5" d="M284.422 46.9868L284.369 46.899L271.303 24.9865L245.572 25.2771L245.522 25.3661L232.954 47.5681L246.073 69.5684L271.803 69.2778L271.854 69.1888L284.422 46.9868ZM271.107 25.335L284.014 46.9914L271.599 68.9338L246.276 69.2198L233.369 47.5634L245.784 25.621L271.107 25.335Z" fill="#B0AEAE" fill-opacity="0.22"/>
<path opacity="0.5" d="M144.268 70.5413L131.149 48.541L105.419 48.8316L105.368 48.9206L92.7997 71.1226L105.919 93.1229L131.649 92.8323L131.7 92.7433L144.268 70.5413ZM130.953 48.8895L143.86 70.5459L131.445 92.4883L106.122 92.7743L93.2148 71.1179L105.63 49.1755L130.953 48.8895Z" fill="#B0AEAE" fill-opacity="0.22"/>
<path opacity="0.5" d="M195.321 69.9647L182.202 47.9644L156.472 48.255L156.421 48.344L143.853 70.546L156.972 92.5463L182.702 92.2557L182.753 92.1667L195.321 69.9647ZM182.006 48.3129L194.914 69.9693L182.498 91.9117L157.176 92.1977L144.268 70.5413L156.683 48.5989L182.006 48.3129Z" fill="#B0AEAE" fill-opacity="0.22"/>
<path opacity="0.5" d="M246.718 70.1457L233.599 48.1453L207.869 48.4359L207.818 48.5249L195.25 70.7269L208.369 92.7272L234.1 92.4366L234.151 92.3476L246.718 70.1457ZM233.403 48.4939L246.311 70.1503L233.896 92.0926L208.573 92.3786L195.665 70.7222L208.08 48.7798L233.403 48.4939Z" fill="#B0AEAE" fill-opacity="0.22"/>
<path opacity="0.5" d="M67.7185 72.1457L54.5994 50.1453L28.869 50.4359L28.8181 50.5249L16.2501 72.7269L29.3692 94.7272L55.0997 94.4366L55.1505 94.3476L67.7185 72.1457ZM54.4032 50.4938L67.3108 72.1503L54.8956 94.0926L29.5728 94.3786L16.6652 72.7222L29.0804 50.7798L54.4032 50.4938Z" fill="#B0AEAE" fill-opacity="0.22"/>
<path opacity="0.5" d="M322.718 68.1457L309.599 46.1453L283.869 46.4359L283.818 46.5249L271.25 68.7269L284.369 90.7272L310.1 90.4366L310.151 90.3476L322.718 68.1457ZM309.403 46.4939L322.311 68.1503L309.896 90.0926L284.573 90.3786L271.665 68.7222L284.08 46.7798L309.403 46.4939Z" fill="#B0AEAE" fill-opacity="0.22"/>
<path opacity="0.5" d="M143.718 27.1457L130.599 5.14534L104.869 5.43592L104.818 5.52492L92.2501 27.7269L105.369 49.7272L131.1 49.4366L131.151 49.3476L143.718 27.1457ZM130.403 5.49385L143.311 27.1503L130.896 49.0926L105.573 49.3786L92.6652 27.7222L105.08 5.77984L130.403 5.49385Z" fill="#B0AEAE" fill-opacity="0.22"/>
<path opacity="0.5" d="M220.718 26.1457L220.666 26.0578L207.599 4.14534L181.869 4.43593L181.818 4.52492L169.25 26.7269L169.303 26.8147L182.369 48.7272L208.1 48.4366L208.151 48.3477L220.718 26.1457ZM207.403 4.49386L220.311 26.1503L207.896 48.0926L182.573 48.3786L169.665 26.7222L182.08 4.77984L207.403 4.49386Z" fill="#B0AEAE" fill-opacity="0.22"/>
<path d="M233.472 47.5622L220.308 25.474L194.474 25.7658L194.401 25.8992L181.811 48.1457L194.976 70.2339L220.81 69.9421L220.883 69.8087L233.472 47.5622ZM220.003 26.0006L232.857 47.5692L220.493 69.4226L195.274 69.7074L182.419 48.1388L194.784 26.2854L220.003 26.0006Z" fill="#CFB52F"/>
<path d="M156.889 48.4271L143.724 26.3389L117.89 26.6307L117.817 26.7641L105.228 49.0106L118.392 71.0988L144.227 70.807L144.299 70.6736L156.889 48.4271ZM143.419 26.8655L156.274 48.4341L143.909 70.2875L118.69 70.5723L105.836 49.0037L118.2 27.1503L143.419 26.8655Z" fill="#CFB52F"/>
<path d="M118.841 70.8285L105.677 48.7402L79.8427 49.032L79.7701 49.1654L67.1804 71.4119L80.3449 93.5001L106.179 93.2084L106.252 93.0749L118.841 70.8285ZM105.372 49.2668L118.226 70.8354L105.862 92.6888L80.6429 92.9736L67.7882 71.405L80.1525 49.5516L105.372 49.2668Z" fill="#CFB52F"/>
<path d="M194.912 26.2341L194.837 26.1023L181.748 4.14584L155.913 4.4376L155.841 4.57105L143.251 26.8175L143.327 26.9493L156.416 48.9057L182.25 48.614L182.323 48.4805L194.912 26.2341ZM181.442 4.67243L194.297 26.241L181.933 48.0944L156.714 48.3792L143.859 26.8106L156.223 4.95724L181.442 4.67243Z" fill="#CFB52F"/>
<path d="M271.912 25.2341L258.748 3.14584L232.913 3.4376L232.841 3.57105L220.251 25.8175L233.416 47.9057L259.25 47.6139L259.323 47.4805L271.912 25.2341ZM258.442 3.67242L271.297 25.241L258.933 47.0944L233.714 47.3792L220.859 25.8106L233.223 3.95724L258.442 3.67242Z" fill="#CFB52F"/>
<path d="M118.912 27.2341L105.748 5.14584L79.9134 5.4376L79.8408 5.57104L67.2511 27.8175L80.4156 49.9057L106.25 49.6139L106.323 49.4805L118.912 27.2341ZM105.442 5.67242L118.297 27.241L105.933 49.0944L80.7137 49.3792L67.859 27.8106L80.2233 5.95723L105.442 5.67242Z" fill="#CFB52F"/>
<path opacity="0.5" d="M92.7111 27.1457L92.6582 27.0579L79.5994 5.14534L53.8689 5.43592L53.8181 5.52492L41.2501 27.7269L54.3691 49.7272L80.0996 49.4366L80.1505 49.3477L92.7185 27.1457L92.7111 27.1457ZM79.3959 5.5013L92.3034 27.1577L79.8883 49.1001L54.5655 49.3861L41.6579 27.7297L54.0731 5.78729L79.3959 5.5013Z" fill="#B0AEAE" fill-opacity="0.22"/>
<path d="M244.626 27.9167L247.755 27.881L249.298 25.4265L247.7 23.0179L244.57 23.0536L243.028 25.4981L244.626 27.9167Z" fill="#B0AEAE" fill-opacity="0.1"/>
<path opacity="0.5" d="M206.476 51.4723L209.327 51.4398L210.716 49.2069L209.277 47.0161L206.426 47.0487L205.025 49.2718L206.476 51.4723Z" fill="#B0AEAE" fill-opacity="0.3"/>
<path opacity="0.5" d="M91.476 29.4723L94.327 29.4398L95.7161 27.2069L94.2766 25.0161L91.4255 25.0487L90.0252 27.2718L91.476 29.4723Z" fill="#B0AEAE" fill-opacity="0.2"/>
<path d="M219.773 71.3423L221.276 71.3252L222.009 70.1583L221.25 69.0085L219.746 69.0257L219.013 70.1925L219.773 71.3423Z" fill="#CFB52F"/>
<path d="M66.7726 73.3423L68.2761 73.3252L69.009 72.1583L68.2497 71.0085L66.7462 71.0257L66.0132 72.1925L66.7726 73.3423Z" fill="#CFB52F"/>
<path opacity="0.5" d="M309.072 4.24062L311.133 4.21712L312.139 2.60771L311.096 1.01169L309.036 1.03519L308.018 2.65471L309.072 4.24062Z" fill="#B0AEAE" fill-opacity="0.3"/>
<path opacity="0.5" d="M157.072 94.2406L159.133 94.2171L160.139 92.6077L159.096 91.0117L157.036 91.0352L156.018 92.6547L157.072 94.2406Z" fill="#B0AEAE" fill-opacity="0.3"/>
<path opacity="0.5" d="M233.072 93.2406L235.133 93.2171L236.139 91.6077L235.096 90.0117L233.036 90.0352L232.018 91.6547L233.072 93.2406Z" fill="#B0AEAE" fill-opacity="0.3"/>
<path d="M269.626 26.9167L272.755 26.881L274.298 24.4265L272.7 22.0179L269.57 22.0536L268.028 24.4981L269.626 26.9167Z" fill="#CFB52F"/>
<path d="M116.626 73.9167L119.755 73.881L121.298 71.4265L119.7 69.0179L116.57 69.0536L115.028 71.4981L116.626 73.9167Z" fill="#CFB52F"/>
<path opacity="0.5" d="M92.0723 72.2406L94.1326 72.2171L95.139 70.6077L94.0961 69.0117L92.0357 69.0352L91.0183 70.6547L92.0723 72.2406Z" fill="#B0AEAE" fill-opacity="0.3"/>
<path d="M154.43 50.321L157.181 50.2896L158.537 48.1369L157.132 46.0157L154.381 46.0471L153.024 48.1998L154.43 50.321Z" fill="#CFB52F"/>
<path opacity="0.5" d="M66.7185 28.1457L53.5994 6.14534L27.8689 6.43592L27.8181 6.52491L15.2501 28.7269L28.3692 50.7272L54.0996 50.4366L54.1505 50.3476L66.7185 28.1457ZM53.4032 6.49385L66.3108 28.1503L53.8956 50.0926L28.5728 50.3786L15.6652 28.7222L28.0804 6.77983L53.4032 6.49385Z" fill="#B0AEAE" fill-opacity="0.22"/>
<path d="M1.62576 51.9167L4.75522 51.881L6.29774 49.4265L4.69975 47.0179L1.57029 47.0536L0.0276787 49.4981L1.62576 51.9167Z" fill="#CFB52F"/>
<path d="M53.9122 48.2341L40.7477 26.1458L14.9134 26.4376L14.8408 26.571L2.2511 48.8175L15.4156 70.9057L41.2499 70.614L41.3225 70.4805L53.9122 48.2341ZM40.4423 26.6724L53.297 48.241L40.9327 70.0944L15.7137 70.3792L2.85897 48.8106L15.2233 26.9572L40.4423 26.6724Z" fill="#CFB52F"/>
<path d="M93.9122 115.234L80.7477 93.1458L54.9134 93.4376L54.8408 93.571L42.2511 115.817L55.4156 137.906L81.2499 137.614L81.3225 137.48L93.9122 115.234ZM80.4423 93.6724L93.297 115.241L80.9327 137.094L55.7137 137.379L42.859 115.811L55.2233 93.9572L80.4423 93.6724Z" fill="#CFB52F"/>
<path opacity="0.5" d="M67.0723 118.241L69.1326 118.217L70.139 116.608L69.0961 115.012L67.0357 115.035L66.0183 116.655L67.0723 118.241Z" fill="#B0AEAE" fill-opacity="0.3"/>
<path d="M386.912 90.2341L386.837 90.1023L373.748 68.1458L347.913 68.4376L347.841 68.571L335.251 90.8175L335.327 90.9493L348.416 112.906L374.25 112.614L374.323 112.481L386.912 90.2341ZM373.442 68.6724L386.297 90.241L373.933 112.094L348.714 112.379L335.859 90.8106L348.223 68.9572L373.442 68.6724Z" fill="#CFB52F"/>
<path opacity="0.5" d="M388.718 135.146L375.599 113.145L349.869 113.436L349.818 113.525L337.25 135.727L350.369 157.727L376.1 157.437L376.151 157.348L388.718 135.146ZM375.403 113.494L388.311 135.15L375.896 157.093L350.573 157.379L337.665 135.722L350.08 113.78L375.403 113.494Z" fill="#B0AEAE" fill-opacity="0.22"/>
<path opacity="0.5" d="M309.072 92.2406L311.133 92.2171L312.139 90.6077L311.096 89.0117L309.036 89.0352L308.018 90.6547L309.072 92.2406Z" fill="#B0AEAE" fill-opacity="0.3"/>
<path opacity="0.5" d="M361.453 89.1739L361.4 89.0869L348.405 67.3769L322.814 67.6659L322.763 67.7541L310.262 89.752L323.309 111.549L348.901 111.26L348.952 111.172L361.453 89.1739ZM348.21 67.7222L361.047 89.1784L348.698 110.919L323.512 111.204L310.675 89.7473L323.024 68.0067L348.21 67.7222Z" fill="#B0AEAE" fill-opacity="0.22"/>
<path opacity="0.5" d="M361.013 46.1219L360.96 46.034L347.894 24.1215L322.163 24.4121L322.113 24.5011L309.545 46.7031L309.598 46.7909L322.664 68.7034L348.394 68.4128L348.445 68.3238L361.013 46.1219ZM347.698 24.4701L360.605 46.1265L348.19 68.0688L322.867 68.3548L309.96 46.6984L322.375 24.756L347.698 24.4701Z" fill="#B0AEAE" fill-opacity="0.22"/>
<path d="M373.912 24.2341L360.748 2.14584L334.913 2.4376L334.841 2.57104L322.251 24.8175L335.416 46.9057L361.25 46.614L361.323 46.4805L373.912 24.2341ZM360.442 2.67243L373.297 24.241L360.933 46.0944L335.714 46.3792L322.859 24.8106L335.223 2.95724L360.442 2.67243Z" fill="#CFB52F"/>
<path d="M335.594 46.4089L335.518 46.2772L322.429 24.3207L296.595 24.6125L296.522 24.7459L283.933 46.9924L284.008 47.1241L297.097 69.0806L322.932 68.7888L323.004 68.6554L335.594 46.4089ZM322.124 24.8473L334.979 46.4159L322.614 68.2693L297.395 68.5541L284.541 46.9855L296.905 25.1321L322.124 24.8473Z" fill="#CFB52F"/>
<path opacity="0.5" d="M322.711 24.1457L322.658 24.0579L309.599 2.14534L283.869 2.43592L283.818 2.52492L271.25 24.7269L284.369 46.7272L310.1 46.4366L310.151 46.3477L322.718 24.1457L322.711 24.1457ZM309.396 2.5013L322.303 24.1577L309.888 46.1001L284.565 46.3861L271.658 24.7297L284.073 2.78729L309.396 2.5013Z" fill="#B0AEAE" fill-opacity="0.22"/>
<path opacity="0.5" d="M348.711 24.1457L348.658 24.0579L335.599 2.14533L309.869 2.43592L309.818 2.52491L297.25 24.7269L310.369 46.7272L336.1 46.4366L336.151 46.3477L348.718 24.1457L348.711 24.1457ZM335.396 2.5013L348.303 24.1577L335.888 46.1001L310.565 46.3861L297.658 24.7297L310.073 2.78728L335.396 2.5013Z" fill="#B0AEAE" fill-opacity="0.22"/>
<path d="M346.626 25.9167L349.755 25.881L351.298 23.4265L349.7 21.0179L346.57 21.0536L345.028 23.4981L346.626 25.9167Z" fill="#B0AEAE" fill-opacity="0.1"/>
<path d="M359.626 91.9167L362.755 91.881L364.298 89.4265L362.7 87.0179L359.57 87.0536L358.028 89.4981L359.626 91.9167Z" fill="#B0AEAE" fill-opacity="0.1"/>
<path opacity="0.5" d="M309.072 48.2406L311.133 48.2171L312.139 46.6077L311.096 45.0117L309.036 45.0352L308.018 46.6547L309.072 48.2406Z" fill="#B0AEAE" fill-opacity="0.3"/>
<path opacity="0.5" d="M347.072 69.2406L349.133 69.2171L350.139 67.6077L349.096 66.0117L347.036 66.0352L346.018 67.6547L347.072 69.2406Z" fill="#B0AEAE" fill-opacity="0.3"/>
<path d="M321.626 70.9167L324.755 70.881L326.298 68.4265L324.7 66.0179L321.57 66.0536L320.028 68.4981L321.626 70.9167Z" fill="#CFB52F"/>
<path d="M336.626 136.917L339.755 136.881L341.298 134.427L339.7 132.018L336.57 132.054L335.028 134.498L336.626 136.917Z" fill="#CFB52F"/>
<path opacity="0.5" d="M385.072 45.2406L387.133 45.2171L388.139 43.6077L387.096 42.0117L385.036 42.0352L384.018 43.6547L385.072 45.2406Z" fill="#B0AEAE" fill-opacity="0.3"/>
<path d="M372.773 25.3423L374.276 25.3252L375.009 24.1583L374.25 23.0085L372.746 23.0257L372.013 24.1925L372.773 25.3423Z" fill="#CFB52F"/>
<path opacity="0.5" d="M398.718 22.1457L385.599 0.145337L359.869 0.435925L359.818 0.524916L347.25 22.7269L360.369 44.7272L386.1 44.4366L386.151 44.3476L398.718 22.1457ZM385.403 0.493851L398.311 22.1503L385.896 44.0926L360.573 44.3786L347.665 22.7222L360.08 0.779835L385.403 0.493851Z" fill="#B0AEAE" fill-opacity="0.22"/>
<path opacity="0.5" d="M399.711 66.1457L386.592 44.1454L360.869 44.4359L360.818 44.5249L348.25 66.7269L361.369 88.7272L387.1 88.4366L387.151 88.3476L399.718 66.1457L399.711 66.1457ZM386.396 44.4939L399.303 66.1503L386.888 88.0927L361.565 88.3787L348.658 66.7223L361.073 44.7799L386.396 44.4939Z" fill="#B0AEAE" fill-opacity="0.22"/>
<path d="M412.912 45.2341L399.748 23.1458L373.913 23.4376L373.841 23.571L361.251 45.8175L374.416 67.9057L400.25 67.614L400.323 67.4805L412.912 45.2341ZM399.442 23.6724L412.297 45.241L399.933 67.0944L374.714 67.3792L361.859 45.8106L374.223 23.9572L399.442 23.6724Z" fill="#CFB52F"/>
<path opacity="0.5" d="M335.072 178.241L337.133 178.217L338.139 176.608L337.096 175.012L335.036 175.035L334.018 176.655L335.072 178.241Z" fill="#B0AEAE" fill-opacity="0.3"/>
<path opacity="0.5" d="M361.718 133.146L348.599 111.145L322.869 111.436L322.818 111.525L310.25 133.727L323.369 155.727L349.1 155.437L349.151 155.348L361.718 133.146ZM348.403 111.494L361.311 133.15L348.896 155.093L323.573 155.379L310.665 133.722L323.08 111.78L348.403 111.494Z" fill="#B0AEAE" fill-opacity="0.22"/>
<path opacity="0.5" d="M387.718 90.1457L374.599 68.1453L348.869 68.4359L348.818 68.5249L336.25 90.7269L349.369 112.727L375.1 112.437L375.151 112.348L387.718 90.1457ZM374.403 68.4938L387.311 90.1503L374.896 112.093L349.573 112.379L336.665 90.7222L349.08 68.7798L374.403 68.4938Z" fill="#B0AEAE" fill-opacity="0.22"/>
<path opacity="0.5" d="M374.718 154.146L361.599 132.145L335.869 132.436L335.818 132.525L323.25 154.727L336.369 176.727L362.1 176.437L362.151 176.348L374.718 154.146ZM361.403 132.494L374.311 154.15L361.896 176.093L336.573 176.379L323.665 154.722L336.08 132.78L361.403 132.494Z" fill="#B0AEAE" fill-opacity="0.22"/>
<path d="M362.842 221.534L364.456 221.516L365.244 220.258L364.428 219.009L362.813 219.028L362.014 220.295L362.842 221.534Z" fill="#B0AEAE" fill-opacity="0.1"/>
<path d="M387.773 134.342L389.276 134.325L390.009 133.158L389.25 132.009L387.746 132.026L387.013 133.193L387.773 134.342Z" fill="#CFB52F"/>
<path d="M374.773 201.342L376.276 201.325L377.009 200.158L376.25 199.009L374.746 199.026L374.013 200.193L374.773 201.342Z" fill="#CFB52F"/>
<path d="M412.773 179.342L414.276 179.325L415.009 178.158L414.25 177.009L412.746 177.026L412.013 178.193L412.773 179.342Z" fill="#CFB52F"/>
<path d="M387.842 177.534L389.456 177.516L390.244 176.258L389.428 175.009L387.813 175.028L387.014 176.295L387.842 177.534Z" fill="#B0AEAE" fill-opacity="0.1"/>
<path opacity="0.5" d="M398.072 112.241L400.133 112.217L401.139 110.608L400.096 109.012L398.036 109.035L397.018 110.655L398.072 112.241Z" fill="#B0AEAE" fill-opacity="0.3"/>
<path d="M413.912 178.234L413.837 178.102L400.748 156.146L374.913 156.438L374.841 156.571L362.251 178.817L362.327 178.949L375.416 200.906L401.25 200.614L401.323 200.481L413.912 178.234ZM400.442 156.672L413.297 178.241L400.933 200.094L375.714 200.379L362.859 178.811L375.223 156.957L400.442 156.672Z" fill="#CFB52F"/>
<path d="M387.912 134.234L387.837 134.102L374.748 112.146L348.913 112.438L348.841 112.571L336.251 134.817L336.327 134.949L349.416 156.906L375.25 156.614L375.323 156.481L387.912 134.234ZM374.442 112.672L387.297 134.241L374.933 156.094L349.714 156.379L336.859 134.811L349.223 112.957L374.442 112.672Z" fill="#CFB52F"/>
<path opacity="0.5" d="M400.718 154.146L387.599 132.145L361.869 132.436L361.818 132.525L349.25 154.727L362.369 176.727L388.1 176.437L388.151 176.348L400.718 154.146ZM387.403 132.494L400.311 154.15L387.896 176.093L362.573 176.379L349.665 154.722L362.08 132.78L387.403 132.494Z" fill="#B0AEAE" fill-opacity="0.22"/>
<path opacity="0.5" d="M401.718 198.146L388.599 176.145L362.869 176.436L362.818 176.525L350.25 198.727L363.369 220.727L389.1 220.437L389.151 220.348L401.718 198.146ZM388.403 176.494L401.311 198.15L388.896 220.093L363.573 220.379L350.665 198.722L363.08 176.78L388.403 176.494Z" fill="#B0AEAE" fill-opacity="0.22"/>
<path opacity="0.5" d="M399.718 110.146L386.599 88.1453L360.869 88.4359L360.818 88.5249L348.25 110.727L361.369 132.727L387.1 132.437L387.151 132.348L399.718 110.146ZM386.403 88.4938L399.311 110.15L386.896 132.093L361.573 132.379L348.665 110.722L361.08 88.7798L386.403 88.4938Z" fill="#B0AEAE" fill-opacity="0.22"/>
<path d="M42.8416 161.534L44.4564 161.516L45.244 160.258L44.4278 159.009L42.813 159.028L42.0144 160.295L42.8416 161.534Z" fill="#B0AEAE" fill-opacity="0.1"/>
<path d="M270.842 70.534L272.456 70.5156L273.244 69.2582L272.428 68.0091L270.813 68.0276L270.014 69.295L270.842 70.534Z" fill="#B0AEAE" fill-opacity="0.1"/>
<path opacity="0.5" d="M28.476 97.4724L31.327 97.4398L32.7161 95.2069L31.2766 93.0161L28.4255 93.0487L27.0252 95.2718L28.476 97.4724Z" fill="#B0AEAE" fill-opacity="0.2"/>
<path d="M54.7726 95.3423L56.2761 95.3252L57.009 94.1583L56.2497 93.0085L54.7462 93.0257L54.0132 94.1925L54.7726 95.3423Z" fill="#CFB52F"/>
<path d="M54.6258 139.917L57.7552 139.881L59.2977 137.427L57.6998 135.018L54.5703 135.054L53.0277 137.498L54.6258 139.917Z" fill="#CFB52F"/>
<path d="M68.9122 159.234L55.7477 137.146L29.9134 137.438L29.8408 137.571L17.2511 159.817L30.4156 181.906L56.2499 181.614L56.3225 181.48L68.9122 159.234ZM55.4423 137.672L68.297 159.241L55.9327 181.094L30.7137 181.379L17.859 159.811L30.2233 137.957L55.4423 137.672Z" fill="#CFB52F"/>
<path opacity="0.5" d="M69.7185 160.146L56.5994 138.145L30.869 138.436L30.8181 138.525L18.2501 160.727L31.3692 182.727L57.0997 182.437L57.1505 182.348L69.7185 160.146ZM56.4032 138.494L69.3108 160.15L56.8956 182.093L31.5728 182.379L18.6652 160.722L31.0804 138.78L56.4032 138.494Z" fill="#B0AEAE" fill-opacity="0.22"/>
</svg>
