<svg width="196" height="179" viewBox="0 0 196 179" fill="none" xmlns="http://www.w3.org/2000/svg">
<path opacity="0.5" d="M93.7185 112.146L80.5994 90.1453L54.869 90.4359L54.8181 90.5249L42.2501 112.727L55.3692 134.727L81.0997 134.437L81.1505 134.348L93.7185 112.146ZM80.4032 90.4938L93.3108 112.15L80.8956 134.093L55.5728 134.379L42.6652 112.722L55.0804 90.7798L80.4032 90.4938Z" fill="#B0AEAE" fill-opacity="0.22"/>
<path d="M29.7726 178.342L31.2761 178.325L32.009 177.158L31.2497 176.009L29.7462 176.026L29.0132 177.193L29.7726 178.342Z" fill="#CFB52F"/>
<path d="M79.7726 46.3423L81.2761 46.3252L82.009 45.1583L81.2497 44.0085L79.7462 44.0257L79.0132 45.1925L79.7726 46.3423Z" fill="#CFB52F"/>
<path d="M181.773 45.3423L183.276 45.3252L184.009 44.1583L183.25 43.0085L181.746 43.0257L181.013 44.1925L181.773 45.3423Z" fill="#CFB52F"/>
<path opacity="0.5" d="M81.7185 90.1456L68.5994 68.1453L42.869 68.4359L42.8181 68.5249L30.2501 90.7269L43.3692 112.727L69.0997 112.437L69.1505 112.348L81.7185 90.1456ZM68.4032 68.4938L81.3108 90.1502L68.8956 112.093L43.5728 112.379L30.6652 90.7222L43.0804 68.7798L68.4032 68.4938Z" fill="#B0AEAE" fill-opacity="0.22"/>
<path opacity="0.5" d="M81.7185 134.146L68.5994 112.145L42.869 112.436L42.8181 112.525L30.2501 134.727L43.3692 156.727L69.0997 156.437L69.1505 156.348L81.7185 134.146ZM68.4032 112.494L81.3108 134.15L68.8956 156.093L43.5728 156.379L30.6652 134.722L43.0804 112.78L68.4032 112.494Z" fill="#B0AEAE" fill-opacity="0.22"/>
<path opacity="0.5" d="M107.718 133.146L94.5994 111.145L68.869 111.436L68.8181 111.525L56.2501 133.727L69.3692 155.727L95.0997 155.437L95.1505 155.348L107.718 133.146ZM94.4032 111.494L107.311 133.15L94.8956 155.093L69.5728 155.379L56.6652 133.722L69.0804 111.78L94.4032 111.494Z" fill="#B0AEAE" fill-opacity="0.22"/>
<path opacity="0.5" d="M68.7185 112.146L55.5994 90.1453L29.869 90.4359L29.8181 90.5249L17.2501 112.727L30.3692 134.727L56.0997 134.437L56.1505 134.348L68.7185 112.146ZM55.4032 90.4938L68.3108 112.15L55.8956 134.093L30.5728 134.379L17.6652 112.722L30.0804 90.7798L55.4032 90.4938Z" fill="#B0AEAE" fill-opacity="0.22"/>
<path opacity="0.5" d="M106.718 89.1456L93.5994 67.1453L67.869 67.4359L67.8181 67.5249L55.2501 89.7269L68.3692 111.727L94.0997 111.437L94.1505 111.348L106.718 89.1456ZM93.4032 67.4938L106.311 89.1502L93.8956 111.093L68.5728 111.379L55.6652 89.7222L68.0804 67.7798L93.4032 67.4938Z" fill="#B0AEAE" fill-opacity="0.22"/>
<path opacity="0.5" d="M168.072 24.2406L170.133 24.2171L171.139 22.6077L170.096 21.0117L168.036 21.0352L167.018 22.6547L168.072 24.2406Z" fill="#B0AEAE" fill-opacity="0.3"/>
<path opacity="0.5" d="M130.072 46.2406L132.133 46.2171L133.139 44.6077L132.096 43.0117L130.036 43.0352L129.018 44.6547L130.072 46.2406Z" fill="#B0AEAE" fill-opacity="0.3"/>
<path opacity="0.5" d="M105.724 45.005L92.6054 23.0046L66.8749 23.2952L66.824 23.3842L54.256 45.5862L67.3751 67.5865L93.1056 67.2959L93.1565 67.207L105.724 45.005ZM92.4091 23.3532L105.317 45.0096L92.9015 66.952L67.5787 67.2379L54.6712 45.5815L67.0864 23.6391L92.4091 23.3532Z" fill="#B0AEAE" fill-opacity="0.22"/>
<path opacity="0.5" d="M182.718 44.1456L169.599 22.1453L143.869 22.4359L143.818 22.5249L131.25 44.7269L144.369 66.7272L170.1 66.4366L170.151 66.3476L182.718 44.1456ZM169.403 22.4938L182.311 44.1502L169.896 66.0926L144.573 66.3786L131.665 44.7222L144.08 22.7798L169.403 22.4938Z" fill="#B0AEAE" fill-opacity="0.22"/>
<path opacity="0.5" d="M144.268 66.5413L131.149 44.541L105.419 44.8316L105.368 44.9206L92.7997 67.1225L105.919 89.1229L131.649 88.8323L131.7 88.7433L144.268 66.5413ZM130.953 44.8895L143.86 66.5459L131.445 88.4883L106.122 88.7743L93.2148 67.1179L105.63 45.1755L130.953 44.8895Z" fill="#B0AEAE" fill-opacity="0.22"/>
<path opacity="0.5" d="M195.321 65.9647L182.202 43.9644L156.472 44.255L156.421 44.344L143.853 66.546L156.972 88.5463L182.702 88.2557L182.753 88.1667L195.321 65.9647ZM182.006 44.3129L194.914 65.9693L182.498 87.9117L157.176 88.1977L144.268 66.5413L156.683 44.5989L182.006 44.3129Z" fill="#B0AEAE" fill-opacity="0.22"/>
<path opacity="0.5" d="M67.7185 68.1456L54.5994 46.1453L28.869 46.4359L28.8181 46.5249L16.2501 68.7269L29.3692 90.7272L55.0997 90.4366L55.1505 90.3476L67.7185 68.1456ZM54.4032 46.4938L67.3108 68.1502L54.8956 90.0926L29.5728 90.3786L16.6652 68.7222L29.0804 46.7798L54.4032 46.4938Z" fill="#B0AEAE" fill-opacity="0.22"/>
<path opacity="0.5" d="M143.718 23.1456L130.599 1.14533L104.869 1.43592L104.818 1.52492L92.2501 23.7269L105.369 45.7272L131.1 45.4366L131.151 45.3476L143.718 23.1456ZM130.403 1.49385L143.311 23.1502L130.896 45.0926L105.573 45.3786L92.6652 23.7222L105.08 1.77983L130.403 1.49385Z" fill="#B0AEAE" fill-opacity="0.22"/>
<path d="M156.889 44.4271L143.724 22.3389L117.89 22.6307L117.817 22.7641L105.228 45.0106L118.392 67.0988L144.227 66.807L144.299 66.6736L156.889 44.4271ZM143.419 22.8655L156.274 44.4341L143.909 66.2875L118.69 66.5723L105.836 45.0037L118.2 23.1503L143.419 22.8655Z" fill="#CFB52F"/>
<path d="M118.841 66.8285L105.677 44.7402L79.8427 45.032L79.7701 45.1654L67.1804 67.4119L80.3449 89.5001L106.179 89.2084L106.252 89.0749L118.841 66.8285ZM105.372 45.2668L118.226 66.8354L105.862 88.6888L80.6429 88.9736L67.7882 67.405L80.1525 45.5516L105.372 45.2668Z" fill="#CFB52F"/>
<path d="M194.912 22.2341L194.837 22.1023L181.748 0.145837L155.913 0.437597L155.841 0.571043L143.251 22.8175L143.327 22.9493L156.416 44.9057L182.25 44.614L182.323 44.4805L194.912 22.2341ZM181.442 0.67242L194.297 22.241L181.933 44.0944L156.714 44.3792L143.859 22.8106L156.223 0.957231L181.442 0.67242Z" fill="#CFB52F"/>
<path d="M118.912 23.234L105.748 1.14583L79.9134 1.43759L79.8408 1.57103L67.2511 23.8175L80.4156 45.9057L106.25 45.6139L106.323 45.4805L118.912 23.234ZM105.442 1.67241L118.297 23.241L105.933 45.0944L80.7137 45.3792L67.859 23.8106L80.2233 1.95722L105.442 1.67241Z" fill="#CFB52F"/>
<path opacity="0.5" d="M92.7111 23.1457L92.6582 23.0579L79.5994 1.14533L53.8689 1.43592L53.8181 1.52491L41.2501 23.7269L54.3691 45.7272L80.0996 45.4366L80.1505 45.3476L92.7185 23.1456L92.7111 23.1457ZM79.3959 1.5013L92.3034 23.1577L79.8883 45.1001L54.5655 45.3861L41.6579 23.7297L54.0731 1.78728L79.3959 1.5013Z" fill="#B0AEAE" fill-opacity="0.22"/>
<path opacity="0.5" d="M91.476 25.4723L94.327 25.4398L95.7161 23.2069L94.2766 21.0161L91.4255 21.0487L90.0252 23.2718L91.476 25.4723Z" fill="#B0AEAE" fill-opacity="0.2"/>
<path d="M66.7726 69.3423L68.2761 69.3252L69.009 68.1583L68.2497 67.0085L66.7462 67.0257L66.0132 68.1925L66.7726 69.3423Z" fill="#CFB52F"/>
<path opacity="0.5" d="M157.072 90.2406L159.133 90.2171L160.139 88.6077L159.096 87.0117L157.036 87.0352L156.018 88.6547L157.072 90.2406Z" fill="#B0AEAE" fill-opacity="0.3"/>
<path d="M116.626 69.9167L119.755 69.881L121.298 67.4265L119.7 65.0179L116.57 65.0536L115.028 67.498L116.626 69.9167Z" fill="#CFB52F"/>
<path opacity="0.5" d="M92.0723 68.2406L94.1326 68.2171L95.139 66.6077L94.0961 65.0117L92.0357 65.0352L91.0183 66.6547L92.0723 68.2406Z" fill="#B0AEAE" fill-opacity="0.3"/>
<path d="M154.43 46.321L157.181 46.2896L158.537 44.1369L157.132 42.0157L154.381 42.0471L153.024 44.1998L154.43 46.321Z" fill="#CFB52F"/>
<path opacity="0.5" d="M66.7185 24.1456L53.5994 2.14533L27.8689 2.43592L27.8181 2.52491L15.2501 24.7269L28.3692 46.7272L54.0996 46.4366L54.1505 46.3476L66.7185 24.1456ZM53.4032 2.49384L66.3108 24.1502L53.8956 46.0926L28.5728 46.3786L15.6652 24.7222L28.0804 2.77982L53.4032 2.49384Z" fill="#B0AEAE" fill-opacity="0.22"/>
<path d="M1.62576 47.9167L4.75522 47.881L6.29774 45.4265L4.69975 43.0179L1.57029 43.0536L0.0276787 45.498L1.62576 47.9167Z" fill="#CFB52F"/>
<path d="M53.9122 44.2341L40.7477 22.1458L14.9134 22.4376L14.8408 22.571L2.2511 44.8175L15.4156 66.9057L41.2499 66.614L41.3225 66.4805L53.9122 44.2341ZM40.4423 22.6724L53.297 44.241L40.9327 66.0944L15.7137 66.3792L2.85897 44.8106L15.2233 22.9572L40.4423 22.6724Z" fill="#CFB52F"/>
<path d="M93.9122 111.234L80.7477 89.1458L54.9134 89.4376L54.8408 89.571L42.2511 111.817L55.4156 133.906L81.2499 133.614L81.3225 133.48L93.9122 111.234ZM80.4423 89.6724L93.297 111.241L80.9327 133.094L55.7137 133.379L42.859 111.811L55.2233 89.9572L80.4423 89.6724Z" fill="#CFB52F"/>
<path opacity="0.5" d="M67.0723 114.241L69.1326 114.217L70.139 112.608L69.0961 111.012L67.0357 111.035L66.0183 112.655L67.0723 114.241Z" fill="#B0AEAE" fill-opacity="0.3"/>
<path d="M42.8416 157.534L44.4564 157.516L45.244 156.258L44.4278 155.009L42.813 155.028L42.0144 156.295L42.8416 157.534Z" fill="#B0AEAE" fill-opacity="0.1"/>
<path opacity="0.5" d="M28.476 93.4723L31.327 93.4398L32.7161 91.2069L31.2766 89.0161L28.4255 89.0487L27.0252 91.2718L28.476 93.4723Z" fill="#B0AEAE" fill-opacity="0.2"/>
<path d="M54.7726 91.3423L56.2761 91.3252L57.009 90.1583L56.2497 89.0085L54.7462 89.0257L54.0132 90.1925L54.7726 91.3423Z" fill="#CFB52F"/>
<path d="M54.6258 135.917L57.7552 135.881L59.2977 133.427L57.6998 131.018L54.5703 131.054L53.0277 133.498L54.6258 135.917Z" fill="#CFB52F"/>
<path d="M68.9122 155.234L55.7477 133.146L29.9134 133.438L29.8408 133.571L17.2511 155.817L30.4156 177.906L56.2499 177.614L56.3225 177.48L68.9122 155.234ZM55.4423 133.672L68.297 155.241L55.9327 177.094L30.7137 177.379L17.859 155.811L30.2233 133.957L55.4423 133.672Z" fill="#CFB52F"/>
<path opacity="0.5" d="M69.7185 156.146L56.5994 134.145L30.869 134.436L30.8181 134.525L18.2501 156.727L31.3692 178.727L57.0997 178.437L57.1505 178.348L69.7185 156.146ZM56.4032 134.494L69.3108 156.15L56.8956 178.093L31.5728 178.379L18.6652 156.722L31.0804 134.78L56.4032 134.494Z" fill="#B0AEAE" fill-opacity="0.22"/>
</svg>
