<svg width="43" height="20" viewBox="0 0 43 20" fill="none" xmlns="http://www.w3.org/2000/svg">
<path d="M0.199997 0.2L0.199997 11.1434L6.34652 19.8L23.8378 19.8L41.8 19.8L41.8 9.34802L35.6502 0.2L0.199997 0.2Z" stroke="#CF9D2F" stroke-width="0.4"/>
<path d="M5.00001 2.83159L5.00001 10.8233L9.71676 17.1684L23.1892 17.1684L37 17.1684L37 9.538L32.28 2.83159L5.00001 2.83159Z" fill="#CF9D2F" stroke="#CF9D2F" stroke-width="0.4"/>
<path d="M11.04 14.01C11.22 13.1233 11.3933 12.2567 11.56 11.41C11.62 11.05 11.6867 10.6767 11.76 10.29C11.8333 9.89667 11.9 9.51 11.96 9.13C12.0267 8.74333 12.0867 8.37333 12.14 8.02C12.2 7.66 12.2467 7.33333 12.28 7.04C12.66 6.92 13.07 6.83333 13.51 6.78C13.95 6.72 14.3867 6.69 14.82 6.69C15.08 6.69 15.2933 6.72 15.46 6.78C15.6333 6.84 15.7667 6.92667 15.86 7.04C15.96 7.14667 16.03 7.27333 16.07 7.42C16.11 7.56667 16.13 7.73 16.13 7.91C16.13 8.17667 16.0833 8.44 15.99 8.7C15.8967 8.95333 15.77 9.19667 15.61 9.43C15.4567 9.65667 15.2767 9.86667 15.07 10.06C14.87 10.2467 14.6533 10.4 14.42 10.52C14.54 10.7867 14.6667 11.08 14.8 11.4C14.94 11.7133 15.07 12.0133 15.19 12.3C15.3233 12.6333 15.46 12.9667 15.6 13.3L14.05 13.84C13.9167 13.38 13.7967 12.9467 13.69 12.54C13.6433 12.3733 13.5967 12.2033 13.55 12.03C13.5033 11.85 13.46 11.6833 13.42 11.53C13.38 11.37 13.3467 11.23 13.32 11.11C13.2933 10.99 13.2767 10.8967 13.27 10.83L13.14 10.87C13.1 11.0833 13.05 11.3433 12.99 11.65C12.9367 11.9567 12.8867 12.2533 12.84 12.54C12.78 12.88 12.72 13.23 12.66 13.59L11.04 14.01ZM13.39 9.67C13.5167 9.65667 13.67 9.60333 13.85 9.51C14.0367 9.41667 14.2133 9.30667 14.38 9.18C14.5467 9.04667 14.69 8.91 14.81 8.77C14.93 8.63 14.99 8.50667 14.99 8.4C14.99 8.32667 14.9667 8.27 14.92 8.23C14.8733 8.18333 14.8067 8.15 14.72 8.13C14.64 8.10333 14.55 8.08667 14.45 8.08C14.35 8.07333 14.2467 8.07 14.14 8.07C14.0667 8.07 13.99 8.07333 13.91 8.08C13.8367 8.08 13.77 8.08 13.71 8.08L13.39 9.67ZM15.5234 14.01L16.8334 6.9L19.9934 6.63C19.9467 6.77667 19.9067 6.92667 19.8734 7.08C19.84 7.20667 19.8067 7.34 19.7734 7.48C19.7467 7.61333 19.7234 7.73333 19.7034 7.84C19.6367 7.84667 19.54 7.85333 19.4134 7.86C19.2934 7.86 19.1634 7.86333 19.0234 7.87C18.8834 7.87 18.74 7.87 18.5934 7.87C18.4534 7.87 18.33 7.87 18.2234 7.87L17.8734 9.66C18.08 9.64667 18.2734 9.63667 18.4534 9.63C18.6 9.62333 18.75 9.62 18.9034 9.62C19.0567 9.62 19.17 9.61667 19.2434 9.61C19.2167 9.79667 19.19 9.98 19.1634 10.16C19.1434 10.34 19.1167 10.5233 19.0834 10.71C19.0167 10.7167 18.9067 10.7233 18.7534 10.73C18.6067 10.73 18.4567 10.7333 18.3034 10.74C18.13 10.7467 17.94 10.7533 17.7334 10.76L17.3934 12.6L18.8534 12.37L18.7534 13.51L15.5234 14.01ZM23.2816 11.53C23.2816 11.9033 23.2082 12.2433 23.0616 12.55C22.9216 12.85 22.7282 13.11 22.4816 13.33C22.2416 13.55 21.9549 13.72 21.6216 13.84C21.2949 13.96 20.9416 14.02 20.5616 14.02C20.2949 14.02 20.0282 13.95 19.7616 13.81C19.4949 13.6633 19.2382 13.4333 18.9916 13.12L19.7316 11.67C19.7782 11.7567 19.8482 11.8467 19.9416 11.94C20.0349 12.0267 20.1382 12.1033 20.2516 12.17C20.3716 12.2367 20.4882 12.2933 20.6016 12.34C20.7216 12.38 20.8282 12.4 20.9216 12.4C21.0016 12.4 21.0849 12.3867 21.1716 12.36C21.2582 12.3333 21.3382 12.2933 21.4116 12.24C21.4849 12.1867 21.5416 12.1267 21.5816 12.06C21.6282 11.9867 21.6516 11.9033 21.6516 11.81C21.6516 11.65 21.5982 11.5033 21.4916 11.37C21.3916 11.23 21.2649 11.1 21.1116 10.98C20.9582 10.8533 20.7916 10.7267 20.6116 10.6C20.4316 10.4733 20.2649 10.34 20.1116 10.2C19.9649 10.06 19.8382 9.90333 19.7316 9.73C19.6249 9.55667 19.5716 9.36333 19.5716 9.15C19.5716 8.80333 19.6749 8.48 19.8816 8.18C20.0882 7.88 20.3449 7.62333 20.6516 7.41C20.9649 7.19 21.3049 7.01667 21.6716 6.89C22.0382 6.76333 22.3849 6.7 22.7116 6.7C22.8916 6.7 23.0616 6.72333 23.2216 6.77C23.3816 6.81 23.5182 6.88 23.6316 6.98C23.7516 7.07333 23.8449 7.19333 23.9116 7.34C23.9849 7.48667 24.0216 7.67 24.0216 7.89C24.0216 7.98333 24.0116 8.07667 23.9916 8.17C23.9782 8.26333 23.9649 8.36333 23.9516 8.47L22.5016 8.89C22.5149 8.83667 22.5249 8.78333 22.5316 8.73C22.5449 8.67667 22.5516 8.62333 22.5516 8.57C22.5516 8.37 22.5149 8.22667 22.4416 8.14C22.3749 8.04667 22.2849 8 22.1716 8C22.1182 8 22.0516 8.02 21.9716 8.06C21.8982 8.1 21.8216 8.15333 21.7416 8.22C21.6682 8.28 21.6049 8.35333 21.5516 8.44C21.4982 8.52667 21.4716 8.62 21.4716 8.72C21.4716 8.88 21.5149 9.01333 21.6016 9.12C21.6949 9.22667 21.8082 9.32667 21.9416 9.42C22.0749 9.51333 22.2182 9.61 22.3716 9.71C22.5316 9.80333 22.6782 9.92667 22.8116 10.08C22.9449 10.2333 23.0549 10.4267 23.1416 10.66C23.2349 10.8867 23.2816 11.1767 23.2816 11.53ZM23.2284 14.01L24.5384 6.9L27.6984 6.63C27.6518 6.77667 27.6118 6.92667 27.5784 7.08C27.5451 7.20667 27.5118 7.34 27.4784 7.48C27.4518 7.61333 27.4284 7.73333 27.4084 7.84C27.3418 7.84667 27.2451 7.85333 27.1184 7.86C26.9984 7.86 26.8684 7.86333 26.7284 7.87C26.5884 7.87 26.4451 7.87 26.2984 7.87C26.1584 7.87 26.0351 7.87 25.9284 7.87L25.5784 9.66C25.7851 9.64667 25.9784 9.63667 26.1584 9.63C26.3051 9.62333 26.4551 9.62 26.6084 9.62C26.7618 9.62 26.8751 9.61667 26.9484 9.61C26.9218 9.79667 26.8951 9.98 26.8684 10.16C26.8484 10.34 26.8218 10.5233 26.7884 10.71C26.7218 10.7167 26.6118 10.7233 26.4584 10.73C26.3118 10.73 26.1618 10.7333 26.0084 10.74C25.8351 10.7467 25.6451 10.7533 25.4384 10.76L25.0984 12.6L26.5584 12.37L26.4584 13.51L23.2284 14.01ZM27.4566 14.01C27.61 13.2767 27.7566 12.5533 27.8966 11.84C27.9566 11.54 28.0166 11.2267 28.0766 10.9C28.1366 10.5733 28.1933 10.2533 28.2466 9.94C28.3066 9.62 28.3566 9.31333 28.3966 9.02C28.4433 8.72 28.4833 8.44667 28.5166 8.2C28.3633 8.18 28.2066 8.17333 28.0466 8.18C27.8933 8.18667 27.74 8.16667 27.5866 8.12C27.5933 8.01333 27.5966 7.89 27.5966 7.75C27.5966 7.61 27.6 7.47 27.6066 7.33C27.6133 7.17667 27.62 7.01333 27.6266 6.84C27.8 6.85333 27.9733 6.86333 28.1466 6.87C28.32 6.87667 28.4933 6.88 28.6666 6.88C29.0066 6.88 29.3333 6.87333 29.6466 6.86C29.9666 6.84 30.26 6.82 30.5266 6.8C30.8 6.77333 31.0666 6.74333 31.3266 6.71L31.2166 7.25C31.1833 7.40333 31.15 7.56 31.1166 7.72C31.09 7.88 31.0633 8.01667 31.0366 8.13C30.89 8.17 30.74 8.2 30.5866 8.22C30.44 8.23333 30.2933 8.25333 30.1466 8.28C30.1 8.50667 30.05 8.76 29.9966 9.04C29.9433 9.31333 29.89 9.6 29.8366 9.9C29.79 10.1933 29.7433 10.4933 29.6966 10.8C29.65 11.1067 29.6033 11.4 29.5566 11.68C29.45 12.34 29.35 13.0233 29.2566 13.73L27.4566 14.01Z" fill="white" fill-opacity="0.479"/>
</svg>
