<svg width="248" height="69" viewBox="0 0 248 69" fill="none" xmlns="http://www.w3.org/2000/svg">
<path d="M67.384 44.912C66.6813 44.912 65.9333 44.9347 65.14 44.98C64.3693 45.0253 63.5873 45.0933 62.794 45.184C62.0007 45.2747 61.2187 45.3993 60.448 45.558C59.7 45.694 59.02 45.864 58.408 46.068C58.544 45.048 58.7027 43.9147 58.884 42.668C59.0653 41.4213 59.2693 40.1293 59.496 38.792C59.7453 37.4547 59.9833 36.106 60.21 34.746C60.4593 33.386 60.7087 32.0827 60.958 30.836C61.5247 27.8667 62.1253 24.8407 62.76 21.758L68.71 20.976C68.098 23.6053 67.5087 26.1667 66.942 28.66C66.6927 29.7253 66.4433 30.836 66.194 31.992C65.9447 33.1253 65.7067 34.236 65.48 35.324C65.2533 36.412 65.0493 37.466 64.868 38.486C64.6867 39.506 64.5393 40.4127 64.426 41.206C64.9927 41.1607 65.5933 41.138 66.228 41.138C66.8853 41.1153 67.4633 41.104 67.962 41.104C67.9847 41.5347 68.0187 41.9653 68.064 42.396C68.1093 42.804 68.1547 43.178 68.2 43.518C68.268 43.858 68.3133 44.164 68.336 44.436C68.3813 44.6853 68.4153 44.8553 68.438 44.946C68.2567 44.946 68.0753 44.946 67.894 44.946C67.7353 44.9233 67.5653 44.912 67.384 44.912ZM68.5318 46.034L72.9858 21.86L83.7298 20.942C83.5711 21.4407 83.4351 21.9507 83.3218 22.472C83.2084 22.9027 83.0951 23.356 82.9818 23.832C82.8911 24.2853 82.8118 24.6933 82.7438 25.056C82.5171 25.0787 82.1884 25.1013 81.7578 25.124C81.3498 25.124 80.9078 25.1353 80.4318 25.158C79.9558 25.158 79.4684 25.158 78.9698 25.158C78.4938 25.158 78.0744 25.158 77.7118 25.158L76.5218 31.244C77.2244 31.1987 77.8818 31.1647 78.4938 31.142C78.9924 31.1193 79.5024 31.108 80.0238 31.108C80.5451 31.108 80.9304 31.0967 81.1798 31.074C81.0891 31.7087 80.9984 32.332 80.9078 32.944C80.8398 33.556 80.7491 34.1793 80.6358 34.814C80.4091 34.8367 80.0351 34.8593 79.5138 34.882C79.0151 34.882 78.5051 34.8933 77.9838 34.916C77.3944 34.9387 76.7484 34.9613 76.0458 34.984L74.8898 41.24L79.8538 40.458L79.5138 44.334L68.5318 46.034ZM82.9077 46.034C83.429 43.5407 83.9277 41.0813 84.4037 38.656C84.6077 37.636 84.8117 36.5707 85.0157 35.46C85.2197 34.3493 85.4123 33.2613 85.5937 32.196C85.7977 31.108 85.9677 30.0653 86.1037 29.068C86.2623 28.048 86.3983 27.1187 86.5117 26.28C85.9903 26.212 85.4577 26.1893 84.9137 26.212C84.3923 26.2347 83.871 26.1667 83.3497 26.008C83.3723 25.6453 83.3837 25.226 83.3837 24.75C83.3837 24.274 83.395 23.798 83.4177 23.322C83.4403 22.8007 83.463 22.2453 83.4857 21.656C84.075 21.7013 84.6643 21.7353 85.2537 21.758C85.843 21.7807 86.4323 21.792 87.0217 21.792C88.1777 21.792 89.2883 21.7693 90.3537 21.724C91.4417 21.656 92.439 21.588 93.3457 21.52C94.275 21.4293 95.1817 21.3273 96.0657 21.214L95.6917 23.05C95.5783 23.5713 95.465 24.104 95.3517 24.648C95.261 25.192 95.1703 25.6567 95.0797 26.042C94.581 26.178 94.071 26.28 93.5497 26.348C93.051 26.3933 92.5523 26.4613 92.0537 26.552C91.895 27.3227 91.725 28.184 91.5437 29.136C91.3623 30.0653 91.181 31.04 90.9997 32.06C90.841 33.0573 90.6823 34.0773 90.5237 35.12C90.365 36.1627 90.2063 37.16 90.0477 38.112C89.685 40.356 89.345 42.6793 89.0277 45.082L82.9077 46.034ZM94.818 30.326C95.1353 29.102 95.4413 27.878 95.736 26.654C96.008 25.5887 96.2913 24.4213 96.586 23.152C96.9033 21.8827 97.1867 20.6813 97.436 19.548C97.572 19.5707 97.7647 19.5933 98.014 19.616C98.2633 19.616 98.5127 19.6273 98.762 19.65C99.0113 19.65 99.2607 19.65 99.51 19.65C99.7593 19.65 99.9407 19.65 100.054 19.65C100.371 19.65 100.734 19.6273 101.142 19.582C101.573 19.5367 101.992 19.48 102.4 19.412C102.808 19.344 103.25 19.2647 103.726 19.174L100.394 29.748L94.818 30.326ZM114.101 37.602C114.101 38.8713 113.852 40.0273 113.353 41.07C112.877 42.09 112.22 42.974 111.381 43.722C110.565 44.47 109.59 45.048 108.457 45.456C107.346 45.864 106.145 46.068 104.853 46.068C103.946 46.068 103.04 45.83 102.133 45.354C101.226 44.8553 100.354 44.0733 99.5151 43.008L102.031 38.078C102.19 38.3727 102.428 38.6787 102.745 38.996C103.062 39.2907 103.414 39.5513 103.799 39.778C104.207 40.0047 104.604 40.1973 104.989 40.356C105.397 40.492 105.76 40.56 106.077 40.56C106.349 40.56 106.632 40.5147 106.927 40.424C107.222 40.3333 107.494 40.1973 107.743 40.016C107.992 39.8347 108.185 39.6307 108.321 39.404C108.48 39.1547 108.559 38.8713 108.559 38.554C108.559 38.01 108.378 37.5113 108.015 37.058C107.675 36.582 107.244 36.14 106.723 35.732C106.202 35.3013 105.635 34.8707 105.023 34.44C104.411 34.0093 103.844 33.556 103.323 33.08C102.824 32.604 102.394 32.0713 102.031 31.482C101.668 30.8927 101.487 30.2353 101.487 29.51C101.487 28.3313 101.838 27.232 102.541 26.212C103.244 25.192 104.116 24.3193 105.159 23.594C106.224 22.846 107.38 22.2567 108.627 21.826C109.874 21.3953 111.052 21.18 112.163 21.18C112.775 21.18 113.353 21.2593 113.897 21.418C114.441 21.554 114.906 21.792 115.291 22.132C115.699 22.4493 116.016 22.8573 116.243 23.356C116.492 23.8547 116.617 24.478 116.617 25.226C116.617 25.5433 116.583 25.8607 116.515 26.178C116.47 26.4953 116.424 26.8353 116.379 27.198L111.449 28.626C111.494 28.4447 111.528 28.2633 111.551 28.082C111.596 27.9007 111.619 27.7193 111.619 27.538C111.619 26.858 111.494 26.3707 111.245 26.076C111.018 25.7587 110.712 25.6 110.327 25.6C110.146 25.6 109.919 25.668 109.647 25.804C109.398 25.94 109.137 26.1213 108.865 26.348C108.616 26.552 108.4 26.8013 108.219 27.096C108.038 27.3907 107.947 27.708 107.947 28.048C107.947 28.592 108.094 29.0453 108.389 29.408C108.706 29.7707 109.092 30.1107 109.545 30.428C109.998 30.7453 110.486 31.074 111.007 31.414C111.551 31.7313 112.05 32.1507 112.503 32.672C112.956 33.1933 113.33 33.8507 113.625 34.644C113.942 35.4147 114.101 36.4007 114.101 37.602ZM137.595 28.626C137.595 29.8047 137.425 31.0627 137.085 32.4C136.745 33.7147 136.269 35.0293 135.657 36.344C135.045 37.636 134.286 38.8827 133.379 40.084C132.495 41.2627 131.486 42.3053 130.353 43.212C129.22 44.096 127.973 44.81 126.613 45.354C125.276 45.898 123.848 46.17 122.329 46.17C122.012 46.17 121.694 46.1473 121.377 46.102C121.06 46.0793 120.742 46.0453 120.425 46C121.037 42.872 121.638 39.8233 122.227 36.854C122.454 35.6073 122.692 34.3153 122.941 32.978C123.19 31.618 123.428 30.2807 123.655 28.966C123.882 27.6513 124.097 26.3933 124.301 25.192C124.528 23.9907 124.709 22.9027 124.845 21.928C125.82 21.7467 126.806 21.5767 127.803 21.418C128.8 21.2593 129.82 21.18 130.863 21.18C132.087 21.18 133.118 21.3727 133.957 21.758C134.818 22.1433 135.51 22.676 136.031 23.356C136.575 24.036 136.972 24.8293 137.221 25.736C137.47 26.6427 137.595 27.606 137.595 28.626ZM129.571 25.974C129.322 27.3113 129.061 28.592 128.789 29.816C128.517 31.04 128.245 32.2753 127.973 33.522C127.701 34.7687 127.429 36.072 127.157 37.432C126.885 38.792 126.624 40.2767 126.375 41.886C126.919 41.5233 127.44 41.036 127.939 40.424C128.46 39.7893 128.948 39.064 129.401 38.248C129.854 37.432 130.262 36.5707 130.625 35.664C131.01 34.7573 131.339 33.8733 131.611 33.012C131.883 32.1507 132.087 31.346 132.223 30.598C132.382 29.85 132.461 29.204 132.461 28.66C132.461 27.8213 132.223 27.164 131.747 26.688C131.294 26.212 130.568 25.974 129.571 25.974ZM154.337 27.606C154.337 29.4647 154.133 31.2213 153.725 32.876C153.34 34.508 152.818 36.0153 152.161 37.398C151.504 38.758 150.733 39.982 149.849 41.07C148.988 42.1353 148.081 43.0533 147.129 43.824C146.177 44.572 145.214 45.15 144.239 45.558C143.264 45.9433 142.335 46.136 141.451 46.136C140.703 46.136 140.023 46 139.411 45.728C138.799 45.4333 138.266 45.014 137.813 44.47C137.36 43.9033 136.997 43.1893 136.725 42.328C136.476 41.444 136.351 40.39 136.351 39.166C136.351 37.8967 136.51 36.5593 136.827 35.154C137.144 33.7487 137.575 32.3547 138.119 30.972C138.663 29.5893 139.332 28.2747 140.125 27.028C140.918 25.7813 141.791 24.682 142.743 23.73C143.695 22.7553 144.715 21.9847 145.803 21.418C146.891 20.8513 148.024 20.568 149.203 20.568C150.223 20.568 151.062 20.7833 151.719 21.214C152.399 21.622 152.92 22.166 153.283 22.846C153.668 23.5033 153.94 24.2513 154.099 25.09C154.258 25.9287 154.337 26.7673 154.337 27.606ZM141.417 38.282C141.417 38.5313 141.462 38.792 141.553 39.064C141.644 39.336 141.768 39.574 141.927 39.778C142.086 39.982 142.278 40.1633 142.505 40.322C142.754 40.458 143.015 40.526 143.287 40.526C144.307 40.526 145.214 40.1747 146.007 39.472C146.8 38.7693 147.458 37.908 147.979 36.888C148.5 35.868 148.897 34.78 149.169 33.624C149.464 32.468 149.611 31.414 149.611 30.462C149.611 30.19 149.588 29.8953 149.543 29.578C149.52 29.2607 149.452 28.966 149.339 28.694C149.248 28.422 149.09 28.1953 148.863 28.014C148.659 27.81 148.376 27.708 148.013 27.708C147.288 27.708 146.619 27.8893 146.007 28.252C145.395 28.6147 144.84 29.102 144.341 29.714C143.865 30.3033 143.446 30.9833 143.083 31.754C142.72 32.502 142.403 33.2727 142.131 34.066C141.882 34.8367 141.7 35.596 141.587 36.344C141.474 37.092 141.417 37.738 141.417 38.282ZM164.485 45.32C164.281 45.32 163.873 45.354 163.261 45.422C162.672 45.4673 162.06 45.5353 161.425 45.626C160.79 45.694 160.212 45.762 159.691 45.83C159.192 45.898 158.92 45.9433 158.875 45.966C159.102 44.9913 159.328 43.9147 159.555 42.736C159.804 41.5347 160.054 40.288 160.303 38.996C160.552 37.6813 160.79 36.3553 161.017 35.018C161.244 33.6807 161.459 32.3887 161.663 31.142C162.139 28.2407 162.615 25.26 163.091 22.2L168.395 21.35C167.874 24.3873 167.364 27.368 166.865 30.292C166.661 31.5387 166.446 32.8307 166.219 34.168C166.015 35.5053 165.8 36.8313 165.573 38.146C165.369 39.4607 165.176 40.7413 164.995 41.988C164.814 43.212 164.644 44.3227 164.485 45.32ZM168.638 46.034C169.159 43.5407 169.658 41.0813 170.134 38.656C170.338 37.636 170.542 36.5707 170.746 35.46C170.95 34.3493 171.143 33.2613 171.324 32.196C171.528 31.108 171.698 30.0653 171.834 29.068C171.993 28.048 172.129 27.1187 172.242 26.28C171.721 26.212 171.188 26.1893 170.644 26.212C170.123 26.2347 169.601 26.1667 169.08 26.008C169.103 25.6453 169.114 25.226 169.114 24.75C169.114 24.274 169.125 23.798 169.148 23.322C169.171 22.8007 169.193 22.2453 169.216 21.656C169.805 21.7013 170.395 21.7353 170.984 21.758C171.573 21.7807 172.163 21.792 172.752 21.792C173.908 21.792 175.019 21.7693 176.084 21.724C177.172 21.656 178.169 21.588 179.076 21.52C180.005 21.4293 180.912 21.3273 181.796 21.214L181.422 23.05C181.309 23.5713 181.195 24.104 181.082 24.648C180.991 25.192 180.901 25.6567 180.81 26.042C180.311 26.178 179.801 26.28 179.28 26.348C178.781 26.3933 178.283 26.4613 177.784 26.552C177.625 27.3227 177.455 28.184 177.274 29.136C177.093 30.0653 176.911 31.04 176.73 32.06C176.571 33.0573 176.413 34.0773 176.254 35.12C176.095 36.1627 175.937 37.16 175.778 38.112C175.415 40.356 175.075 42.6793 174.758 45.082L168.638 46.034ZM184.764 37.942C184.107 37.942 183.45 37.9647 182.792 38.01C182.135 38.0553 181.478 38.1007 180.82 38.146C181.523 35.358 182.203 32.5813 182.86 29.816C183.54 27.0507 184.243 24.274 184.968 21.486C185.399 21.418 185.886 21.35 186.43 21.282C186.997 21.214 187.564 21.1347 188.13 21.044C188.697 20.9533 189.241 20.874 189.762 20.806C190.306 20.738 190.76 20.67 191.122 20.602C189.898 23.458 188.776 26.3367 187.756 29.238C186.759 32.1167 185.762 35.018 184.764 37.942ZM185.104 43.28C185.104 43.7107 185.002 44.1413 184.798 44.572C184.617 45.0027 184.345 45.388 183.982 45.728C183.62 46.0453 183.166 46.2947 182.622 46.476C182.078 46.68 181.455 46.782 180.752 46.782C180.276 46.782 179.846 46.6913 179.46 46.51C179.075 46.3287 178.758 46.0907 178.508 45.796C178.282 45.4787 178.1 45.1273 177.964 44.742C177.828 44.3567 177.76 43.9713 177.76 43.586C177.76 43.1553 177.828 42.7473 177.964 42.362C178.1 41.954 178.304 41.6027 178.576 41.308C178.871 40.9907 179.222 40.73 179.63 40.526C180.061 40.322 180.571 40.22 181.16 40.22C182.475 40.22 183.461 40.5373 184.118 41.172C184.776 41.784 185.104 42.4867 185.104 43.28Z" fill="#CF9D2F"/>
<path d="M247.25 0.75V37.0735L215.973 68.25H0.75V31.7859L32.1935 0.75H247.25Z" stroke="url(#paint0_linear_10_8)" stroke-width="1.5"/>
<defs>
<linearGradient id="paint0_linear_10_8" x1="495.5" y1="1.91983e-05" x2="70" y2="-87" gradientUnits="userSpaceOnUse">
<stop stop-color="#E7D8B7"/>
<stop offset="1" stop-color="#CF9D2F" stop-opacity="0.73"/>
</linearGradient>
</defs>
</svg>
