<svg width="180" height="303" viewBox="0 0 180 303" fill="none" xmlns="http://www.w3.org/2000/svg">
<path d="M102.11 4.45481L98.1123 2.07963L94.8203 1.43185L91.5284 1H86.8256L83.7688 2.07963L81.1823 3.15925L76.7147 6.18221L73.6579 11.5803L72.0119 24.9677L71.3065 26.6951L66.6037 38.7869L64.9577 43.3214L66.6037 45.9125L72.4822 48.2877L77.1849 48.7195V52.3902L68.7199 59.0839L60.4901 66.8572L56.4927 75.9261L54.3765 80.4605L53.2008 88.0179L54.3765 91.6887L55.317 94.2798V96.8709L50.6143 106.588L46.852 116.952L46.3818 118.247L45.9115 119.759L44.7358 124.293L44.0304 125.805L38.8573 140.704L37.2114 145.886L36.7411 148.693L35.5654 156.898L37.2114 161.217V163.376L34.3897 167.91L31.568 175.252L24.9841 199.22L21.6922 211.095L17.2246 227.074L12.2867 244.132L7.58388 261.622L2.17569 282.135L1 285.806L2.17569 290.34H3.35139H7.58388L10.6407 287.749L14.1678 276.521L17.93 264.429L22.1625 250.61L29.9221 224.915L35.3302 206.777L41.4439 185.4L46.3818 170.933V165.103L48.0277 164.24L50.144 163.376V162.296L48.7332 150.42L49.2034 149.557L50.144 148.693L51.3197 145.886L52.0251 142.863L52.4954 140.704L58.8441 130.987L60.4901 130.555V131.419L58.8441 140.704L57.4333 151.716L56.4927 154.523V166.183L57.4333 188.855L58.8441 202.458V211.743V218.005L57.6684 235.495L56.7279 246.291L55.317 258.599L54.3765 267.668L52.7305 278.248H53.6711H57.4333L57.9036 279.112L50.3791 283.646L47.3223 284.078L43.7952 285.806L43.0898 289.044V290.988L44.5007 292.283H50.3791L54.8468 291.636C57.1198 291.42 61.8539 290.988 62.6063 290.988C63.3588 290.988 67.6226 290.268 69.6605 289.908L71.5416 289.044L85.1797 288.181L88.2365 287.533L92.7041 286.885L95.0555 285.806H98.5826H103.52L104.226 287.533L117.864 291.42H123.272L119.51 295.738L118.569 298.545L119.51 300.489L122.096 302L139.026 301.352L143.024 300.489L146.081 297.25L153.605 295.306L161.129 294.659L167.008 296.17L175.003 295.09L176.178 294.522L177.354 294.311L177.824 294.011L179 292.715L176.178 267.236L175.473 257.735L173.357 240.677L170.77 222.324L167.243 197.924L162.775 171.797L160.424 160.137L156.427 135.09L154.075 120.839L151.724 109.395L148.197 90.825L146.081 80.4605L144.435 76.5739L142.553 71.6076L140.437 67.0732L136.675 60.8113L133.383 56.4928L131.737 54.5495L129.386 53.2539L127.269 52.3902L121.626 50.0151L112.691 46.9921L116.688 44.8329L117.864 43.3214L117.159 40.2984L110.81 26.6951L110.339 24.9677L109.869 18.7059L108.223 13.7396L106.812 9.85294L105.166 6.82999L102.11 4.45481Z" fill="#16161E" stroke="#16161E"/>
</svg>
