<svg width="1035" height="1235" viewBox="0 0 1035 1235" fill="none" xmlns="http://www.w3.org/2000/svg">
<g style="mix-blend-mode:overlay" clip-path="url(#clip0_17_10)">
<path opacity="0.5" d="M141.982 157.759L141.982 161.594L138.655 163.535L135.305 161.594L135.305 157.759L138.655 155.842L141.982 157.759Z" fill="#D0D9DD"/>
<path opacity="0.5" d="M141.889 237.298L141.889 241.017L138.655 242.888L135.42 241.017L135.42 237.298L138.655 235.426L141.889 237.298Z" fill="#D0D9DD"/>
<path opacity="0.5" d="M141.381 317.066L141.381 320.208L138.655 321.802L135.905 320.208L135.905 317.066L138.655 315.496L141.381 317.066Z" fill="#D0D9DD"/>
<path opacity="0.5" d="M140.734 396.928L140.734 399.33L138.655 400.532L136.552 399.33L136.552 396.928L138.655 395.704L140.734 396.928Z" fill="#D0D9DD"/>
<path opacity="0.5" d="M142.467 793.325L142.467 797.737L138.655 799.932L134.819 797.737L134.819 793.325L138.655 791.107L142.467 793.325Z" fill="#D0D9DD"/>
<path opacity="0.5" d="M143.599 1110.6L143.599 1116.31L138.655 1119.17L133.687 1116.31L133.687 1110.6L138.655 1107.73L143.599 1110.6Z" fill="#D0D9DD"/>
<path opacity="0.5" d="M146.21 1188.57L146.21 1197.3L138.655 1201.66L131.076 1197.3L131.076 1188.57L138.655 1184.18L146.21 1188.57Z" fill="#D0D9DD"/>
<path opacity="0.5" d="M73.6366 117.609L73.6366 122.114L69.7318 124.355L65.827 122.114L65.827 117.609L69.7318 115.345L73.6366 117.609Z" fill="#D0D9DD"/>
<path opacity="0.5" d="M73.8907 196.893L73.8907 201.675L69.7318 204.078L65.5728 201.675L65.5728 196.893L69.7318 194.491L73.8907 196.893Z" fill="#D0D9DD"/>
<path opacity="0.5" d="M75.2539 275.53L75.2539 281.906L69.7317 285.071L64.2327 281.906L64.2327 275.53L69.7317 272.342L75.2539 275.53Z" fill="#D0D9DD"/>
<path opacity="0.5" d="M75.6004 751.904L75.6004 758.673L69.7318 762.045L63.8861 758.673L63.8861 751.904L69.7318 748.508L75.6004 751.904Z" fill="#D0D9DD"/>
<path opacity="0.5" d="M73.1051 832.759L73.1051 836.64L69.7318 838.603L66.3815 836.64L66.3815 832.759L69.7318 830.818L73.1051 832.759Z" fill="#D0D9DD"/>
<path opacity="0.5" d="M72.0191 912.805L72.0191 915.462L69.7317 916.778L67.4443 915.462L67.4443 912.805L69.7317 911.488L72.0191 912.805Z" fill="#D0D9DD"/>
<path opacity="0.5" d="M74.7687 990.657L74.7687 996.455L69.7318 999.366L64.7179 996.455L64.7179 990.657L69.7318 987.769L74.7687 990.657Z" fill="#D0D9DD"/>
<path opacity="0.5" d="M72.0653 1073.29L72.0653 1075.97L69.7317 1077.31L67.4212 1075.97L67.4212 1073.29L69.7317 1071.95L72.0653 1073.29Z" fill="#D0D9DD"/>
<path opacity="0.5" d="M74.6994 1151.33L74.6994 1157.06L69.7318 1159.9L64.7872 1157.06L64.7872 1151.33L69.7318 1148.46L74.6994 1151.33Z" fill="#D0D9DD"/>
<path opacity="0.5" d="M72.4581 1230.26L72.4581 1233.43L69.7317 1235L67.0052 1233.43L67.0052 1230.26L69.7317 1228.69L72.4581 1230.26Z" fill="#D0D9DD"/>
<path opacity="0.5" d="M279.089 78.683L279.089 81.7093L276.455 83.2109L273.844 81.7093L273.844 78.683L276.455 77.1814L279.089 78.683Z" fill="#D0D9DD"/>
<path opacity="0.5" d="M282.809 156.004L282.809 163.35L276.455 167.023L270.101 163.35L270.101 156.004L276.455 152.354L282.809 156.004Z" fill="#D0D9DD"/>
<path opacity="0.5" d="M278.534 237.968L278.534 240.347L276.454 241.548L274.398 240.347L274.398 237.968L276.454 236.766L278.534 237.968Z" fill="#D0D9DD"/>
<path opacity="0.5" d="M283.224 314.733L283.224 322.542L276.455 326.446L269.708 322.542L269.708 314.733L276.455 310.852L283.224 314.733Z" fill="#D0D9DD"/>
<path opacity="0.5" d="M278.395 714.942L278.395 717.159L276.454 718.268L274.537 717.159L274.537 714.942L276.454 713.81L278.395 714.942Z" fill="#D0D9DD"/>
<path opacity="0.5" d="M278.049 794.595L278.049 796.443L276.455 797.367L274.86 796.443L274.86 794.595L276.455 793.671L278.049 794.595Z" fill="#D0D9DD"/>
<path opacity="0.5" d="M281.168 872.285L281.168 877.737L276.454 880.463L271.741 877.737L271.741 872.285L276.454 869.559L281.168 872.285Z" fill="#D0D9DD"/>
<path opacity="0.5" d="M281.26 951.708L281.26 957.252L276.454 960.024L271.672 957.252L271.672 951.708L276.454 948.935L281.26 951.708Z" fill="#D0D9DD"/>
<path opacity="0.5" d="M210.397 197.655L210.397 200.913L207.555 202.553L204.713 200.913L204.713 197.655L207.555 196.015L210.397 197.655Z" fill="#D0D9DD"/>
<path opacity="0.5" d="M210.05 356.708L210.05 359.573L207.555 361.005L205.059 359.573L205.059 356.708L207.555 355.253L210.05 356.708Z" fill="#D0D9DD"/>
<path opacity="0.5" d="M209.218 436.616L209.218 438.534L207.555 439.481L205.891 438.534L205.891 436.616L207.555 435.646L209.218 436.616Z" fill="#D0D9DD"/>
<path opacity="0.5" d="M211.182 594.329L211.182 598.511L207.555 600.613L203.927 598.511L203.927 594.329L207.555 592.227L211.182 594.329Z" fill="#D0D9DD"/>
<path opacity="0.5" d="M209.403 674.791L209.403 676.917L207.555 677.979L205.706 676.917L205.706 674.791L207.555 673.729L209.403 674.791Z" fill="#D0D9DD"/>
<path opacity="0.5" d="M211.113 832.643L211.113 836.755L207.555 838.811L203.996 836.755L203.996 832.643L207.555 830.61L211.113 832.643Z" fill="#D0D9DD"/>
<path opacity="0.5" d="M213.4 1150.82L213.4 1157.56L207.555 1160.94L201.709 1157.56L201.709 1150.82L207.555 1147.45L213.4 1150.82Z" fill="#D0D9DD"/>
<path opacity="0.5" d="M557.045 77.3435L557.045 83.0495L552.1 85.9141L547.156 83.0495L547.156 77.3435L552.1 74.4789L557.045 77.3435Z" fill="#D0D9DD"/>
<path opacity="0.5" d="M554.134 158.499L554.134 160.855L552.1 162.033L550.067 160.855L550.067 158.499L552.1 157.344L554.134 158.499Z" fill="#D0D9DD"/>
<path opacity="0.5" d="M557.253 315.657L557.253 321.618L552.1 324.598L546.948 321.618L546.948 315.657L552.1 312.7L557.253 315.657Z" fill="#D0D9DD"/>
<path opacity="0.5" d="M557.391 395.057L557.391 401.179L552.1 404.251L546.786 401.179L546.786 395.057L552.1 392.007L557.391 395.057Z" fill="#D0D9DD"/>
<path opacity="0.5" d="M490.71 513.405L490.71 522.091L483.177 526.434L475.668 522.091L475.668 513.405L483.177 509.062L490.71 513.405Z" fill="#D0D9DD"/>
<path opacity="0.5" d="M421.81 552.747L421.81 561.433L414.277 565.776L406.768 561.433L406.768 552.747L414.277 548.404L421.81 552.747Z" fill="#D0D9DD"/>
<path opacity="0.5" d="M554.572 714.618L554.572 717.483L552.1 718.915L549.605 717.483L549.605 714.618L552.1 713.163L554.572 714.618Z" fill="#D0D9DD"/>
<path opacity="0.5" d="M351.57 195.692L351.57 202.876L345.377 206.457L339.162 202.876L339.162 195.692L345.377 192.111L351.57 195.692Z" fill="#D0D9DD"/>
<path opacity="0.5" d="M348.15 277.101L348.15 280.312L345.378 281.906L342.605 280.312L342.605 277.101L345.378 275.507L348.15 277.101Z" fill="#D0D9DD"/>
<path opacity="0.5" d="M348.219 356.501L348.219 359.781L345.378 361.444L342.512 359.781L342.512 356.501L345.378 354.837L348.219 356.501Z" fill="#D0D9DD"/>
<path opacity="0.5" d="M348.358 435.854L348.358 439.296L345.378 441.005L342.397 439.296L342.397 435.854L345.378 434.121L348.358 435.854Z" fill="#D0D9DD"/>
<path opacity="0.5" d="M348.335 515.277L348.335 518.695L345.377 520.405L342.397 518.695L342.397 515.277L345.377 513.567L348.335 515.277Z" fill="#D0D9DD"/>
<path opacity="0.5" d="M349.375 594.121L349.375 598.719L345.378 601.029L341.38 598.719L341.38 594.121L345.378 591.811L349.375 594.121Z" fill="#D0D9DD"/>
<path opacity="0.5" d="M624.489 38.4177L624.489 42.4373L621 44.4702L617.511 42.4373L617.511 38.4177L621 36.3847L624.489 38.4177Z" fill="#D0D9DD"/>
<path opacity="0.5" d="M694.175 77.7364L694.174 82.657L689.9 85.1289L685.649 82.657L685.649 77.7364L689.9 75.2877L694.175 77.7364Z" fill="#D0D9DD"/>
<path opacity="0.5" d="M694.059 475.195L694.059 480.001L689.9 482.403L685.764 480.001L685.764 475.195L689.9 472.816L694.059 475.195Z" fill="#D0D9DD"/>
<path opacity="0.5" d="M693.62 554.941L693.62 559.215L689.9 561.364L686.203 559.215L686.203 554.941L689.9 552.816L693.62 554.941Z" fill="#D0D9DD"/>
<path opacity="0.5" d="M622.941 118.741L622.941 120.982L621 122.091L619.059 120.982L619.059 118.741L621 117.609L622.941 118.741Z" fill="#D0D9DD"/>
<path opacity="0.5" d="M624.651 435.461L624.651 439.666L621 441.768L617.35 439.666L617.35 435.461L621 433.359L624.651 435.461Z" fill="#D0D9DD"/>
<path opacity="0.5" d="M622.733 595.415L622.733 597.425L621 598.418L619.267 597.425L619.267 595.415L621 594.422L622.733 595.415Z" fill="#D0D9DD"/>
<path opacity="0.5" d="M625.991 752.389L625.991 758.164L621 761.052L616.009 758.164L616.009 752.389L621 749.501L625.991 752.389Z" fill="#D0D9DD"/>
<path opacity="0.5" d="M830.588 158.014L830.588 161.34L827.723 163.003L824.858 161.34L824.858 158.014L827.723 156.373L830.588 158.014Z" fill="#D0D9DD"/>
<path opacity="0.5" d="M832.436 236.443L832.436 241.895L827.723 244.598L823.009 241.895L823.009 236.443L827.723 233.717L832.436 236.443Z" fill="#D0D9DD"/>
<path opacity="0.5" d="M832.852 315.68L832.852 321.594L827.723 324.551L822.617 321.594L822.617 315.68L827.723 312.723L832.852 315.68Z" fill="#D0D9DD"/>
<path opacity="0.5" d="M764.807 116.408L764.807 123.315L758.823 126.757L752.839 123.315L752.839 116.408L758.823 112.943L764.807 116.408Z" fill="#D0D9DD"/>
<path opacity="0.5" d="M763.721 196.454L763.721 202.114L758.823 204.956L753.902 202.114L753.902 196.454L758.823 193.613L763.721 196.454Z" fill="#D0D9DD"/>
<path opacity="0.5" d="M762.451 514.907L762.451 519.088L758.823 521.19L755.195 519.088L755.195 514.907L758.823 512.805L762.451 514.907Z" fill="#D0D9DD"/>
<path opacity="0.5" d="M900.112 38.4178L900.112 42.4375L896.646 44.4473L893.157 42.4375L893.157 38.4178L896.646 36.4079L900.112 38.4178Z" fill="#D0D9DD"/>
<path opacity="0.5" d="M971.83 235.519L971.83 242.795L965.546 246.422L959.261 242.795L959.261 235.519L965.546 231.892L971.83 235.519Z" fill="#D0D9DD"/>
<path opacity="0.5" d="M903.67 195.23L903.67 203.339L896.646 207.404L889.599 203.338L889.599 195.23L896.646 191.164L903.67 195.23Z" fill="#D0D9DD"/>
<path opacity="0.5" d="M421.07 871.823L421.07 879.655L414.277 883.582L407.484 879.655L407.484 871.823L414.277 867.919L421.07 871.823Z" fill="#D0D9DD"/>
<path d="M557.045 474.757L557.045 480.463L552.1 483.327L547.156 480.463L547.156 474.757L552.1 471.892L557.045 474.757Z" fill="white"/>
<path d="M419.222 395.196L419.222 400.902L414.277 403.766L409.333 400.902L409.333 395.196L414.277 392.331L419.222 395.196Z" fill="white"/>
<path d="M559.609 632.216L559.609 640.902L552.1 645.245L544.568 640.902L544.568 632.216L552.1 627.873L559.609 632.216Z" fill="white"/>
<path d="M556.074 793.232L556.074 797.829L552.1 800.116L548.126 797.829L548.126 793.232L552.1 790.922L556.074 793.232Z" fill="white"/>
<path d="M692.811 396.443L692.811 399.793L689.9 401.479L687.012 399.793L687.012 396.443L689.9 394.78L692.811 396.443Z" fill="white"/>
<path d="M71.8574 39.2033L71.8574 41.652L69.7318 42.8765L67.606 41.652L67.606 39.2033L69.7318 37.979L71.8574 39.2033Z" fill="white"/>
<path d="M146.742 472.931L146.742 482.264L138.655 486.931L130.568 482.264L130.568 472.931L138.655 468.265L146.742 472.931Z" fill="white"/>
<path d="M142.444 554.895L142.444 559.261L138.655 561.456L134.866 559.261L134.866 554.895L138.655 552.701L142.444 554.895Z" fill="white"/>
<path d="M141.058 635.172L141.058 637.968L138.655 639.354L136.229 637.968L136.229 635.172L138.655 633.763L141.058 635.172Z" fill="white"/>
<path d="M142.883 713.602L142.883 718.476L138.655 720.925L134.426 718.476L134.426 713.602L138.655 711.153L142.883 713.602Z" fill="white"/>
<path d="M141.011 873.625L141.011 876.374L138.655 877.76L136.275 876.374L136.275 873.625L138.655 872.262L141.011 873.625Z" fill="white"/>
<path d="M142.883 952.054L142.883 956.929L138.655 959.377L134.403 956.929L134.403 952.054L138.655 949.606L142.883 952.054Z" fill="white"/>
<path d="M142.49 1031.75L142.49 1036.19L138.655 1038.41L134.796 1036.19L134.796 1031.75L138.655 1029.51L142.49 1031.75Z" fill="white"/>
<path d="M73.0358 356.246L73.0358 360.035L69.7317 361.929L66.4508 360.035L66.4508 356.246L69.7317 354.352L73.0358 356.246Z" fill="white"/>
<path d="M74.2372 434.976L74.2372 440.174L69.7317 442.761L65.2262 440.174L65.2262 434.976L69.7317 432.365L74.2372 434.976Z" fill="white"/>
<path d="M73.4285 514.86L73.4285 519.134L69.7317 521.26L66.0349 519.134L66.0349 514.86L69.7317 512.735L73.4285 514.86Z" fill="white"/>
<path d="M72.4813 594.838L72.4813 598.002L69.7318 599.596L66.9823 598.002L66.9823 594.838L69.7318 593.244L72.4813 594.838Z" fill="white"/>
<path d="M212.846 37.3778L212.846 43.4765L207.555 46.5259L202.264 43.4765L202.264 37.3778L207.555 34.3284L212.846 37.3778Z" fill="white"/>
<path d="M282.323 394.733L282.323 401.502L276.455 404.875L270.609 401.502L270.609 394.733L276.455 391.36L282.323 394.733Z" fill="white"/>
<path d="M278.557 476.397L278.557 478.799L276.455 480L274.375 478.799L274.375 476.397L276.455 475.195L278.557 476.397Z" fill="white"/>
<path d="M281.769 554.018L281.769 560.139L276.454 563.212L271.163 560.139L271.163 554.018L276.454 550.968L281.769 554.018Z" fill="white"/>
<path d="M279.25 1032.35L279.25 1035.57L276.454 1037.18L273.682 1035.57L273.682 1032.35L276.454 1030.76L279.25 1032.35Z" fill="white"/>
<path d="M282.3 1110.07L282.3 1116.81L276.454 1120.19L270.632 1116.81L270.632 1110.07L276.454 1106.72L282.3 1110.07Z" fill="white"/>
<path d="M209.773 118.579L209.773 121.143L207.555 122.414L205.337 121.143L205.337 118.579L207.555 117.286L209.773 118.579Z" fill="white"/>
<path d="M211.621 276.362L211.621 281.051L207.555 283.408L203.488 281.051L203.488 276.362L207.555 274.006L211.621 276.362Z" fill="white"/>
<path d="M209.472 515.877L209.472 518.118L207.555 519.227L205.637 518.118L205.637 515.877L207.555 514.768L209.472 515.877Z" fill="white"/>
<path d="M212.615 752.366L212.615 758.187L207.555 761.121L202.495 758.187L202.495 752.366L207.555 749.432L212.615 752.366Z" fill="white"/>
<path d="M211.806 911.673L211.806 916.594L207.555 919.065L203.303 916.594L203.303 911.673L207.555 909.224L211.806 911.673Z" fill="white"/>
<path d="M209.749 992.297L209.749 994.838L207.555 996.108L205.359 994.838L205.359 992.297L207.555 991.026L209.749 992.297Z" fill="white"/>
<path d="M209.981 1073.24L209.981 1076.04L207.555 1077.43L205.128 1076.04L205.128 1073.24L207.555 1071.83L209.981 1073.24Z" fill="white"/>
<path d="M488.214 37.5165L488.214 43.3149L483.177 46.2256L478.163 43.3149L478.163 37.5165L483.177 34.6288L488.214 37.5165Z" fill="white"/>
<path d="M419.291 77.2971L419.291 83.0956L414.277 86.0063L409.264 83.0955L409.264 77.2971L414.277 74.4094L419.291 77.2971Z" fill="white"/>
<path d="M349.421 117.517L349.421 122.183L345.378 124.54L341.311 122.183L341.311 117.517L345.378 115.184L349.421 117.517Z" fill="white"/>
<path d="M348.959 673.775L348.959 677.91L345.377 679.989L341.796 677.91L341.796 673.775L345.377 671.719L348.959 673.775Z" fill="white"/>
<path d="M347.757 753.914L347.757 756.663L345.377 758.026L342.998 756.663L342.998 753.914L345.377 752.527L347.757 753.914Z" fill="white"/>
<path d="M348.035 833.174L348.035 836.247L345.377 837.795L342.697 836.247L342.697 833.174L345.377 831.627L348.035 833.174Z" fill="white"/>
<path d="M349.975 911.465L349.975 916.802L345.377 919.458L340.756 916.802L340.756 911.465L345.377 908.809L349.975 911.465Z" fill="white"/>
<path d="M349.398 991.257L349.398 995.877L345.377 998.211L341.357 995.877L341.357 991.257L345.377 988.924L349.398 991.257Z" fill="white"/>
<path d="M692.811 158.013L692.811 161.363L689.9 163.026L687.012 161.363L687.012 158.013L689.9 156.327L692.811 158.013Z" fill="white"/>
<path d="M693.712 236.974L693.712 241.34L689.9 243.535L686.111 241.34L686.111 236.974L689.9 234.779L693.712 236.974Z" fill="white"/>
<path d="M694.937 633.671L694.937 639.47L689.9 642.357L684.886 639.47L684.886 633.671L689.9 630.76L694.937 633.671Z" fill="white"/>
<path d="M627.978 195.253L627.978 203.315L621 207.335L614.022 203.315L614.022 195.253L621 191.233L627.978 195.253Z" fill="white"/>
<path d="M626.199 275.715L626.199 281.698L621 284.702L615.825 281.698L615.825 275.715L621 272.712L626.199 275.715Z" fill="white"/>
<path d="M626.638 354.884L626.638 361.398L621 364.632L615.386 361.398L615.386 354.884L621 351.649L626.638 354.884Z" fill="white"/>
<path d="M624.397 673.89L624.397 677.818L621 679.781L617.604 677.818L617.604 673.89L621 671.927L624.397 673.89Z" fill="white"/>
<path d="M832.667 77.3435L832.667 83.0495L827.723 85.9141L822.778 83.0495L822.778 77.3435L827.723 74.4789L832.667 77.3435Z" fill="white"/>
<path d="M832.459 474.872L832.459 480.324L827.723 483.073L822.986 480.324L822.986 474.872L827.723 472.146L832.459 474.872Z" fill="white"/>
<path d="M764.576 275.391L764.576 282.045L758.823 285.348L753.07 282.045L753.07 275.391L758.823 272.065L764.576 275.391Z" fill="white"/>
<path d="M761.503 356.593L761.503 359.689L758.823 361.236L756.12 359.689L756.12 356.593L758.823 355.045L761.503 356.593Z" fill="white"/>
<path d="M969.243 157.552L969.243 161.825L965.546 163.951L961.849 161.825L961.849 157.552L965.546 155.403L969.243 157.552Z" fill="white"/>
</g>
<defs>
<clipPath id="clip0_17_10">
<rect width="1035" height="1235" fill="white" transform="translate(1035 1235) rotate(-180)"/>
</clipPath>
</defs>
</svg>
